<?xml version="1.0" standalone="no"?>
<!DOCTYPE svg PUBLIC "-//W3C//DTD SVG 20010904//EN"
 "http://www.w3.org/TR/2001/REC-SVG-20010904/DTD/svg10.dtd">
<svg version="1.0" xmlns="http://www.w3.org/2000/svg"
 width="512.000000pt" height="512.000000pt" viewBox="0 0 512.000000 512.000000"
 preserveAspectRatio="xMidYMid meet">
<metadata>
Created by potrace 1.16, written by Peter Selinger 2001-2019
</metadata>
<g transform="translate(0.000000,512.000000) scale(0.100000,-0.100000)"
fill="#000000" stroke="none">
<path d="M1462 4807 c-19 -20 -24 -55 -56 -422 -20 -220 -40 -452 -46 -515 -6
-63 -31 -349 -55 -635 -56 -653 -73 -843 -85 -975 -6 -58 -10 -122 -10 -144 0
-35 2 -38 23 -31 12 4 48 14 79 22 64 17 63 15 72 138 8 90 50 579 82 945 42
490 63 730 74 865 6 72 15 168 20 215 5 47 14 154 21 238 11 144 13 152 33
152 19 0 365 -30 1576 -135 223 -20 552 -48 732 -63 180 -16 329 -30 332 -33
2 -2 -11 -177 -29 -389 -19 -212 -50 -569 -70 -795 -65 -744 -164 -1888 -171
-1978 l-7 -87 -43 0 c-24 0 -139 9 -256 20 -117 11 -373 33 -568 50 -195 17
-429 37 -520 45 -91 8 -183 15 -206 15 l-41 0 -7 -77 c-3 -42 -5 -77 -4 -79 3
-2 145 -15 828 -74 124 -11 306 -27 405 -35 551 -49 519 -49 549 -2 15 23 21
72 61 547 8 96 20 222 25 280 6 58 37 418 70 800 33 382 69 799 80 925 87 991
82 925 65 951 -9 14 -26 29 -38 33 -12 5 -108 16 -212 25 -565 49 -771 67
-875 76 -63 5 -478 41 -922 80 -444 38 -824 70 -846 70 -27 0 -45 -7 -60 -23z"/>
<path d="M1728 3391 c-15 -12 -29 -29 -32 -39 -3 -9 -12 -99 -21 -200 -15
-169 -15 -185 0 -208 28 -43 -66 -32 1185 -139 223 -19 530 -46 682 -60 152
-14 288 -25 302 -25 14 0 37 10 52 23 26 22 27 28 42 213 8 104 12 202 8 217
-10 41 -48 53 -206 66 -80 6 -219 18 -310 26 -325 29 -639 56 -1325 115 -126
11 -257 23 -290 26 -51 5 -64 3 -87 -15z m777 -211 c319 -28 735 -64 925 -80
189 -17 346 -30 349 -30 5 0 -8 -172 -13 -177 -3 -3 -290 21 -806 67 -63 5
-169 15 -235 20 -66 6 -165 14 -220 20 -86 8 -195 18 -540 45 -38 4 -85 8
-102 11 l-33 5 7 77 c3 42 9 82 14 88 4 5 23 9 41 7 18 -2 294 -26 613 -53z"/>
<path d="M2595 2524 c-14 -15 -25 -38 -25 -51 0 -31 51 -83 82 -83 13 0 123
-9 245 -20 225 -20 244 -19 276 8 23 20 22 83 -1 112 -16 20 -35 23 -232 41
-296 26 -315 25 -345 -7z"/>
<path d="M2760 2173 c-54 -19 -79 -92 -44 -127 30 -30 51 -35 222 -47 l172
-13 25 24 c21 20 25 32 23 64 -5 62 -30 73 -183 86 -71 5 -146 12 -165 14 -19
2 -42 2 -50 -1z"/>
<path d="M1505 1821 c-28 -12 -41 -30 -49 -67 -5 -22 -17 -35 -41 -47 -76 -36
-128 -160 -105 -249 23 -83 67 -121 213 -180 89 -36 107 -52 107 -94 0 -86
-95 -118 -207 -70 -48 20 -68 24 -87 16 -33 -12 -48 -42 -44 -88 3 -42 38 -71
120 -100 41 -14 48 -21 48 -43 0 -35 33 -63 75 -63 42 0 73 26 81 71 5 26 15
38 44 53 44 23 97 80 118 129 8 20 15 63 15 96 1 106 -56 186 -159 224 -121
46 -164 71 -164 96 0 39 10 53 45 65 27 9 44 7 94 -10 75 -25 82 -25 113 0 30
23 40 64 25 97 -11 25 -57 56 -99 66 -19 5 -28 16 -33 36 -11 50 -65 80 -110
62z"/>
<path d="M2692 1787 c-44 -47 -11 -136 50 -138 13 0 88 -6 168 -13 153 -14
192 -9 210 24 16 30 11 79 -9 99 -23 23 -41 26 -202 41 -171 15 -192 14 -217
-13z"/>
</g>
</svg>
